<?xml version="1.0" encoding="utf-8"?>
<!-- Generator: Adobe Illustrator 16.0.0, SVG Export Plug-In . SVG Version: 6.00 Build 0)  -->
<!DOCTYPE svg PUBLIC "-//W3C//DTD SVG 1.1//EN" "http://www.w3.org/Graphics/SVG/1.1/DTD/svg11.dtd">
<svg version="1.1" id="Capa_1" xmlns="http://www.w3.org/2000/svg" xmlns:xlink="http://www.w3.org/1999/xlink" x="0px" y="0px"
	 width="116.748px" height="132.667px" viewBox="0 0 116.748 132.667" enable-background="new 0 0 116.748 132.667"
	 xml:space="preserve">
<path fill="#FFFFFF" stroke="#211915" stroke-width="2" stroke-miterlimit="10" d="M14.425,29.69"/>
<rect x="26.477" y="26.092" fill="#FFFFFF" width="59.911" height="1.733"/>
<rect x="26.477" y="31.261" fill="#FFFFFF" width="39.663" height="1.731"/>
<rect x="26.477" y="41.649" fill="#FFFFFF" width="59.911" height="1.733"/>
<rect x="26.477" y="46.834" fill="#FFFFFF" width="59.911" height="1.733"/>
<rect x="26.477" y="52.02" fill="#FFFFFF" width="59.911" height="1.734"/>
<path fill="#FFFFFF" stroke="#211915" stroke-width="2" stroke-miterlimit="10" d="M14.425,90.34"/>
<path fill="#FFFFFF" d="M97.724,56.692v-30.24c-0.59-0.006-1.167-0.064-1.734-0.154v30.394c0,3.332-2.71,6.043-6.042,6.043H22.335
	c-3.333,0-6.043-2.711-6.043-6.043V19.328c0-3.333,2.711-6.044,6.043-6.044H86c0.063-0.593,0.18-1.169,0.327-1.733H22.335
	c-4.289,0-7.777,3.488-7.777,7.777v37.364c0,4.288,3.489,7.776,7.777,7.776h67.612C94.235,64.468,97.724,60.98,97.724,56.692z"/>
<path fill="#FFFFFF" d="M96.488,28.199c-6.672,0-12.101-5.428-12.101-12.101S89.815,3.998,96.488,3.998s12.101,5.428,12.101,12.101
	S103.16,28.199,96.488,28.199z M96.488,5.998c-5.569,0-10.101,4.531-10.101,10.101s4.531,10.101,10.101,10.101
	s10.101-4.531,10.101-10.101S102.057,5.998,96.488,5.998z"/>
<path fill="#FFFFFF" d="M96.377,20.179c-0.256,0-0.512-0.098-0.707-0.293l-5.122-5.122c-0.391-0.391-0.391-1.023,0-1.414
	s1.023-0.391,1.414,0l4.415,4.415l7.42-7.42c0.391-0.391,1.023-0.391,1.414,0s0.391,1.023,0,1.414l-8.127,8.127
	C96.889,20.082,96.633,20.179,96.377,20.179z"/>
<rect x="26.477" y="88.126" fill="#FFFFFF" width="59.911" height="1.733"/>
<rect x="26.477" y="93.296" fill="#FFFFFF" width="39.663" height="1.732"/>
<rect x="26.477" y="103.686" fill="#FFFFFF" width="59.911" height="1.733"/>
<rect x="26.477" y="108.872" fill="#FFFFFF" width="59.911" height="1.733"/>
<rect x="26.477" y="114.057" fill="#FFFFFF" width="59.911" height="1.734"/>
<path fill="#FFFFFF" d="M97.724,118.729V88.487c-0.59-0.006-1.167-0.064-1.734-0.154v30.396c0,3.332-2.71,6.043-6.042,6.043H22.335
	c-3.333,0-6.043-2.711-6.043-6.043V81.364c0-3.333,2.711-6.044,6.043-6.044H86c0.063-0.594,0.18-1.169,0.327-1.733H22.335
	c-4.289,0-7.777,3.488-7.777,7.777v37.365c0,4.288,3.489,7.776,7.777,7.776h67.612C94.235,126.505,97.724,123.017,97.724,118.729z"
	/>
<path fill="#FFFFFF" d="M96.488,90.234c-6.672,0-12.101-5.428-12.101-12.1s5.428-12.101,12.101-12.101s12.101,5.429,12.101,12.101
	S103.16,90.234,96.488,90.234z M96.488,68.034c-5.569,0-10.101,4.531-10.101,10.101c0,5.568,4.531,10.1,10.101,10.1
	s10.101-4.531,10.101-10.1C106.588,72.565,102.057,68.034,96.488,68.034z"/>
<path fill="#FFFFFF" d="M96.377,82.214c-0.256,0-0.512-0.098-0.707-0.293l-5.122-5.122c-0.391-0.391-0.391-1.023,0-1.414
	s1.023-0.391,1.414,0l4.415,4.415l7.42-7.42c0.391-0.391,1.023-0.391,1.414,0s0.391,1.023,0,1.414l-8.127,8.127
	C96.889,82.117,96.633,82.214,96.377,82.214z"/>
</svg>
