<?xml version="1.0" encoding="utf-8"?>
<!-- Generator: Adobe Illustrator 16.0.0, SVG Export Plug-In . SVG Version: 6.00 Build 0)  -->
<!DOCTYPE svg PUBLIC "-//W3C//DTD SVG 1.1//EN" "http://www.w3.org/Graphics/SVG/1.1/DTD/svg11.dtd">
<svg version="1.1" id="Capa_1" xmlns="http://www.w3.org/2000/svg" xmlns:xlink="http://www.w3.org/1999/xlink" x="0px" y="0px"
	 width="116.748px" height="132.667px" viewBox="0 0 116.748 132.667" enable-background="new 0 0 116.748 132.667"
	 xml:space="preserve">
<g>
	<g>
		<path fill="#FFFFFF" d="M60.935,107.228l-0.204-0.002c-0.448-0.011-0.896-0.014-1.344-0.014l-2.264,0.009
			c-7.816-0.063-8.332-0.526-9.234-8.274c-0.315-2.703-0.92-4.125-3.352-4.395c-0.582-0.063-1.173-0.297-1.618-0.641
			c-2.753-2.133-5.151-1.834-8.186,1.029c-0.511,0.48-1.074,0.863-1.618,1.232c-0.209,0.142-0.418,0.283-0.622,0.43
			c-2.053,1.48-4.233,1.292-6.072-0.521c-1.609-1.588-3.188-3.206-4.767-4.824l-0.854-0.875c-1.813-1.855-1.94-3.954-0.369-6.068
			l0.587-0.787c1.125-1.505,2.288-3.062,3.265-4.665c0.221-0.362,0.269-1.154,0.101-1.66c-0.224-0.676-0.551-1.337-0.896-2.036
			c-0.498-1.008-1.012-2.049-1.239-3.201c-0.394-1.994-1.374-2.771-3.743-2.969c-1.198-0.1-2.374-0.342-3.511-0.574
			c-0.526-0.109-1.052-0.217-1.579-0.311c-2.4-0.426-3.73-2.029-3.746-4.516c-0.012-1.929-0.008-3.855-0.004-5.783l0.003-2.213
			c0.002-2.605,1.365-4.202,3.941-4.619l0.502-0.081c2.087-0.337,4.245-0.685,6.306-1.192c0.307-0.074,0.835-0.521,1.057-0.984
			c0.283-0.59,0.491-1.24,0.711-1.93c0.338-1.059,0.688-2.154,1.348-3.109c1.366-1.979,0.903-3.266-0.575-5.239
			c-4.869-6.501-5.122-7.099-0.376-11.69c0.467-0.452,0.986-0.955,1.557-1.521c2.536-2.52,3.809-3.785,5.502-3.785
			c1.559,0,2.963,1.117,5.515,3.257c1.387,1.162,2.539,1.658,3.854,1.658c0.912,0,1.961-0.232,3.403-0.754
			c4.152-1.503,5.783-3.567,5.818-7.358c0.006-0.643,0.135-1.244,0.259-1.824c0.051-0.239,0.103-0.478,0.143-0.716
			c0.411-2.422,2.007-3.77,4.496-3.796c2.754-0.029,5.51-0.044,8.263,0.021c2.441,0.057,4.011,1.435,4.418,3.879
			c0.134,0.803,0.206,1.646,0.276,2.462c0.162,1.885,0.315,3.667,1.149,4.796c0.586,0.794,1.885,1.228,3.261,1.687
			c1.075,0.358,2.186,0.729,3.145,1.328c1.78,1.11,2.865,1.021,4.52-0.478c0.863-0.781,1.828-1.419,2.761-2.036
			c0.488-0.323,0.978-0.646,1.449-0.988c1.979-1.438,4.076-1.265,5.857,0.476c2.027,1.979,3.984,3.978,5.816,5.854
			c1.613,1.652,1.808,3.708,0.534,5.642c-0.537,0.814-1.182,1.6-1.806,2.359c-1.255,1.529-2.441,2.975-2.622,4.424
			c-0.19,1.529,0.848,3.438,1.852,5.282c0.351,0.646,0.698,1.284,0.998,1.909c0.299,0.623,1.041,1.304,1.588,1.455
			c1.536,0.428,3.187,0.662,4.783,0.889c0.508,0.072,1.016,0.144,1.521,0.222c2.644,0.407,4.106,2.101,4.117,4.771
			c0.008,1.93-0.006,3.859-0.021,5.787l-0.014,1.971c-0.016,2.606-1.485,4.298-4.137,4.762c-0.528,0.094-1.057,0.199-1.586,0.305
			c-1.378,0.275-2.804,0.56-4.254,0.63c-1.34,0.065-1.818,0.464-2.224,1.856c-0.544,1.87-1.374,3.82-2.536,5.962
			c-0.446,0.823-0.416,1.204,0.152,1.94c0.834,1.08,1.609,2.215,2.359,3.313c0.515,0.752,1.029,1.506,1.564,2.244
			c1.449,2.001,1.284,4.079-0.465,5.852c-1.862,1.889-3.781,3.787-5.866,5.805c-1.712,1.656-3.816,1.805-5.865,0.393
			c-0.738-0.508-1.451-1.107-2.142-1.688c-1.451-1.219-2.821-2.371-4.204-2.563c-1.133-0.154-2.455,0.525-3.89,1.245
			c-0.978,0.491-1.989,0.999-3.035,1.299c-1.455,0.417-1.962,1.002-2.092,2.406c-0.098,1.063-0.299,2.108-0.494,3.119
			c-0.16,0.826-0.31,1.607-0.41,2.4C65.495,105.733,63.795,107.228,60.935,107.228z M59.387,105.212
			c0.464,0,0.927,0.003,1.391,0.014l0.157,0.002c1.853,0,2.702-0.746,2.932-2.574c0.108-0.857,0.271-1.707,0.43-2.529
			c0.194-1.008,0.377-1.959,0.467-2.924c0.205-2.225,1.294-3.504,3.532-4.145c0.867-0.249,1.793-0.714,2.688-1.164
			c1.642-0.825,3.375-1.674,5.063-1.438c1.952,0.272,3.61,1.665,5.214,3.013c0.685,0.575,1.331,1.118,1.99,1.572
			c1.261,0.869,2.293,0.828,3.34-0.184c2.073-2.006,3.981-3.895,5.833-5.771c1.067-1.082,1.148-2.061,0.269-3.273
			c-0.545-0.754-1.071-1.521-1.596-2.29c-0.733-1.073-1.492-2.185-2.29-3.218c-1.054-1.363-1.152-2.595-0.328-4.115
			c1.093-2.017,1.87-3.838,2.375-5.568c0.642-2.203,1.852-3.188,4.046-3.296c1.302-0.063,2.593-0.32,3.96-0.593
			c0.543-0.109,1.087-0.217,1.631-0.313c1.707-0.3,2.473-1.164,2.483-2.807l0.014-1.972c0.015-1.921,0.029-3.843,0.021-5.763
			c-0.007-1.705-0.731-2.543-2.421-2.804c-0.498-0.077-0.998-0.147-1.498-0.218c-1.66-0.236-3.377-0.479-5.038-0.941
			c-1.249-0.347-2.382-1.529-2.856-2.52c-0.285-0.594-0.616-1.201-0.951-1.816c-1.155-2.123-2.349-4.318-2.079-6.484
			c0.252-2.025,1.68-3.764,3.061-5.446c0.591-0.72,1.202-1.464,1.681-2.191c0.763-1.158,0.669-2.157-0.295-3.145
			c-1.823-1.868-3.771-3.856-5.782-5.82c-1.089-1.064-2.097-1.152-3.284-0.289c-0.495,0.36-1.009,0.7-1.522,1.039
			c-0.911,0.602-1.771,1.171-2.521,1.85c-2.307,2.09-4.366,2.286-6.921,0.692c-0.759-0.474-1.755-0.806-2.719-1.128
			c-1.61-0.537-3.275-1.093-4.237-2.395c-1.17-1.584-1.354-3.734-1.533-5.813c-0.07-0.812-0.136-1.579-0.256-2.304
			c-0.249-1.493-1.018-2.174-2.492-2.209c-2.73-0.063-5.462-0.049-8.195-0.02c-1.513,0.016-2.297,0.673-2.545,2.13
			c-0.045,0.267-0.102,0.534-0.159,0.801c-0.108,0.505-0.21,0.983-0.215,1.424c-0.043,4.666-2.177,7.423-7.137,9.22
			c-1.669,0.604-2.929,0.874-4.083,0.874c-1.8,0-3.385-0.656-5.139-2.126c-2.07-1.735-3.387-2.79-4.23-2.79
			c-0.869,0-2.082,1.206-4.092,3.204c-0.578,0.573-1.103,1.082-1.576,1.539c-1.974,1.91-2.845,2.788-2.811,3.594
			c0.041,0.979,1.286,2.642,3.349,5.396c1.629,2.174,2.798,4.553,0.668,7.638c-0.491,0.712-0.781,1.62-1.089,2.582
			c-0.231,0.724-0.47,1.472-0.813,2.186c-0.398,0.832-1.345,1.808-2.383,2.063c-2.14,0.526-4.338,0.881-6.465,1.224l-0.501,0.081
			c-1.604,0.26-2.26,1.026-2.261,2.646l-0.003,2.215c-0.003,1.922-0.007,3.844,0.004,5.767c0.01,1.535,0.636,2.3,2.096,2.56
			c0.544,0.097,1.088,0.208,1.631,0.319c1.129,0.231,2.196,0.45,3.275,0.54c2.194,0.184,4.807,0.869,5.539,4.576
			c0.176,0.891,0.61,1.771,1.07,2.701c0.361,0.73,0.734,1.486,1.001,2.293c0.305,0.916,0.303,2.355-0.29,3.33
			c-1.027,1.686-2.218,3.279-3.371,4.822l-0.584,0.783c-0.97,1.305-0.912,2.346,0.194,3.479l0.855,0.875
			c1.57,1.609,3.14,3.218,4.741,4.797c1.147,1.133,2.237,1.232,3.498,0.322c0.22-0.158,0.444-0.31,0.668-0.462
			c0.501-0.341,0.975-0.662,1.369-1.032c3.752-3.539,7.281-3.869,10.781-1.156c0.151,0.116,0.398,0.211,0.613,0.234
			c3.92,0.435,4.777,3.213,5.12,6.15c0.39,3.349,0.628,5.127,1.376,5.792c0.757,0.674,2.562,0.688,5.839,0.714L59.387,105.212z
			 M57.529,89.932c-8.299,0-16.016-3.149-21.75-8.866c-5.735-5.719-8.893-13.415-8.89-21.67
			c0.006-16.686,13.427-30.271,29.917-30.283h0.024c8.491,0,16.337,3.181,22.093,8.958c5.698,5.718,8.819,13.462,8.79,21.804
			C87.653,76.439,74.113,89.921,57.529,89.932z M56.83,30.113l-0.022,1c-15.388,0.011-27.912,12.699-27.918,28.283
			c-0.002,7.72,2.946,14.912,8.302,20.253c5.357,5.341,12.572,8.283,20.317,8.283c15.243-0.009,28.149-12.861,28.204-28.063
			c0.028-7.809-2.887-15.048-8.206-20.387c-5.378-5.397-12.721-8.369-20.676-8.369V30.113z"/>
		<path fill="#FFFFFF" d="M63.936,82.078c-1.417,0-2.553-0.807-3.472-2.465c-0.587-1.06-1.672-1.691-2.902-1.691
			c-1.231,0-2.368,0.621-3.042,1.661c-0.946,1.459-2.652,2.33-4.565,2.331c-1.796,0-3.435-0.806-4.385-2.154
			c-0.495-0.703-0.591-1.806-0.288-3.277c0.313-1.518,0.087-2.843-0.639-3.733c-0.814-0.999-2.208-1.319-3.825-0.878
			c-0.559,0.154-1.057,0.229-1.522,0.229c-2.27,0-3.059-1.75-3.693-3.156c-0.1-0.221-0.202-0.447-0.311-0.672
			c-1.519-3.129,0.21-4.625,1.886-5.58c1.054-0.6,1.683-1.621,1.727-2.801c0.047-1.254-0.57-2.436-1.649-3.161
			c-1.086-0.729-2.87-2.153-2.612-3.494c0.314-1.648,1.129-3.444,2.423-5.338c0.426-0.621,1.211-0.621,1.469-0.621
			c0.686,0,1.571,0.187,2.218,0.323c0.343,0.072,0.63,0.104,0.912,0.104c1.146,0,2.201-0.501,2.895-1.375
			c0.683-0.86,0.917-1.949,0.656-3.066c-0.331-1.42,0.067-2.975,1.091-4.266c1.348-1.697,3.49-2.518,5.352-2.018
			c1.082,0.29,1.812,1.369,2.399,2.236l0.088,0.131c0.769,1.129,1.904,1.777,3.114,1.777c1.221,0,2.36-0.655,3.125-1.797
			c0.504-0.755,1.812-2.51,3.044-2.51l0.31,0.035c1.565,0.352,2.992,1.117,4.371,1.857c0.288,0.155,0.575,0.309,0.862,0.459
			c0.642,0.333,0.711,1.063,0.752,1.498c0.007,0.077,0.012,0.15,0.023,0.207l0.04,0.196l-0.034,0.215
			c-0.023,0.117-0.037,0.229-0.05,0.333c-0.039,0.305-0.083,0.65-0.27,0.994c-1.102,2.033-0.047,3.039,1.913,4.643l0.3,0.246
			c0.036,0.024,0.224,0.095,0.614,0.095c0.413,0,0.914-0.079,1.34-0.21c0.667-0.205,1.254-0.305,1.794-0.305
			c2.568,0,3.395,2.318,3.666,3.08l0.179,0.488c0.661,1.786,1.483,4.008-1.636,5.758c-1.269,0.712-1.995,1.813-1.993,3.021
			c0.002,1.272,0.79,2.439,2.162,3.204c3.123,1.738,2.172,4.094,1.478,5.813c-0.612,1.518-1.41,3.499-3.765,3.499
			c-0.441,0-0.909-0.069-1.43-0.211c-1.702-0.463-3.229-0.101-4.016,0.942c-0.627,0.83-0.765,2.016-0.388,3.34
			c0.986,3.465-1.269,4.49-2.915,5.24l-0.459,0.211C65.397,81.878,64.632,82.078,63.936,82.078z M57.562,75.921
			c1.967,0,3.706,1.018,4.651,2.721c0.701,1.266,1.265,1.436,1.723,1.436c0.396,0,0.883-0.138,1.49-0.423l0.481-0.222
			c1.699-0.773,2.334-1.063,1.819-2.873c-0.553-1.941-0.299-3.75,0.715-5.092c1.286-1.705,3.625-2.351,6.137-1.667
			c0.343,0.093,0.647,0.141,0.905,0.141c0.866,0,1.212-0.517,1.88-2.175c0.793-1.965,0.946-2.547-0.567-3.391
			c-1.994-1.109-3.186-2.959-3.188-4.947c-0.003-1.925,1.124-3.707,3.015-4.768c1.628-0.914,1.386-1.568,0.738-3.319l-0.187-0.511
			c-0.576-1.617-1.222-1.752-1.782-1.752c-0.333,0-0.738,0.072-1.205,0.217c-0.615,0.189-1.318,0.298-1.929,0.298
			c-0.81,0-1.445-0.187-1.888-0.552l-0.293-0.241c-1.731-1.417-4.349-3.558-2.405-7.143c0.01-0.032,0.03-0.185,0.044-0.296
			c0.012-0.09,0.024-0.184,0.039-0.279c-0.009-0.072-0.018-0.15-0.025-0.229c-0.002-0.027-0.005-0.056-0.007-0.083
			c-0.188-0.1-0.375-0.2-0.562-0.301c-1.26-0.677-2.454-1.317-3.692-1.628c-0.286,0.182-0.894,0.801-1.425,1.594
			c-1.142,1.707-2.886,2.686-4.787,2.686c-1.883,0-3.621-0.967-4.768-2.653L52.4,40.335c-0.314-0.465-0.899-1.329-1.26-1.426
			c-1.092-0.293-2.418,0.26-3.268,1.33c-0.643,0.81-0.901,1.746-0.709,2.568c0.396,1.698,0.017,3.435-1.039,4.764
			c-1.332,1.676-3.546,2.457-5.727,1.997c-0.582-0.123-1.37-0.29-1.849-0.293c-1.006,1.519-1.65,2.933-1.917,4.208
			c0.153,0.287,0.802,0.955,1.738,1.585c1.658,1.114,2.605,2.944,2.532,4.896c-0.07,1.888-1.067,3.516-2.736,4.465
			c-1.566,0.893-1.787,1.502-1.076,2.969c0.118,0.242,0.227,0.484,0.335,0.723c0.661,1.466,0.972,1.979,1.87,1.979
			c0.281,0,0.615-0.053,0.993-0.156c2.379-0.654,4.594-0.066,5.905,1.543c1.112,1.365,1.484,3.283,1.047,5.4
			c-0.232,1.123-0.104,1.623-0.035,1.722c0.575,0.817,1.603,1.306,2.749,1.306c1.213-0.001,2.319-0.545,2.886-1.419
			C53.885,76.882,55.65,75.921,57.562,75.921z"/>
		<path fill="#FFFFFF" d="M57.668,67.986c-4.894,0-8.875-3.981-8.875-8.875s3.981-8.875,8.875-8.875s8.875,3.981,8.875,8.875
			S62.562,67.986,57.668,67.986z M57.668,52.236c-3.791,0-6.875,3.084-6.875,6.875s3.084,6.875,6.875,6.875s6.875-3.084,6.875-6.875
			S61.459,52.236,57.668,52.236z"/>
	</g>
	<path fill="#FFFFFF" d="M73.94,119.847H41.437c-0.552,0-1-0.447-1-1s0.448-1,1-1H73.94c0.552,0,1,0.447,1,1
		S74.493,119.847,73.94,119.847z"/>
</g>
</svg>
