<?xml version="1.0" encoding="utf-8"?>
<!-- Generator: Adobe Illustrator 16.0.0, SVG Export Plug-In . SVG Version: 6.00 Build 0)  -->
<!DOCTYPE svg PUBLIC "-//W3C//DTD SVG 1.1//EN" "http://www.w3.org/Graphics/SVG/1.1/DTD/svg11.dtd">
<svg version="1.1" id="Capa_1" xmlns="http://www.w3.org/2000/svg" xmlns:xlink="http://www.w3.org/1999/xlink" x="0px" y="0px"
	 width="116.748px" height="132.667px" viewBox="0 0 116.748 132.667" enable-background="new 0 0 116.748 132.667"
	 xml:space="preserve">
<g>
	<path fill="#FFFFFF" d="M45.271,72.133H13.976c-0.829,0-1.5-0.672-1.5-1.5V38.296c0-0.829,0.671-1.5,1.5-1.5h31.295
		c0.829,0,1.5,0.671,1.5,1.5v32.337C46.771,71.461,46.1,72.133,45.271,72.133z M15.476,69.133h28.295V39.796H15.476V69.133z"/>
	<path fill="#FFFFFF" stroke="#211915" stroke-width="2" stroke-miterlimit="10" d="M42.688,70.633"/>
	<rect x="53" y="41.1" fill="#FFFFFF" width="27.222" height="1.676"/>
	<rect x="53" y="51.122" fill="#FFFFFF" width="54.444" height="1.676"/>
	<rect x="53" y="56.131" fill="#FFFFFF" width="54.444" height="1.676"/>
	<rect x="53" y="61.143" fill="#FFFFFF" width="54.444" height="1.674"/>
	<rect x="53" y="66.153" fill="#FFFFFF" width="36.044" height="1.676"/>
	<path fill="#FFFFFF" d="M105.871,117.319H74.575c-0.829,0-1.5-0.672-1.5-1.5V83.482c0-0.829,0.671-1.5,1.5-1.5h31.295
		c0.829,0,1.5,0.671,1.5,1.5v32.337C107.371,116.647,106.699,117.319,105.871,117.319z M76.075,114.319h28.295V84.982H76.075
		V114.319z"/>
	<path fill="#FFFFFF" stroke="#211915" stroke-width="2" stroke-miterlimit="10" d="M29.332,123.157"/>
	<rect x="39.673" y="86.839" fill="#FFFFFF" width="27.222" height="1.676"/>
	<rect x="12.451" y="94.641" fill="#FFFFFF" width="54.444" height="1.676"/>
	<rect x="12.451" y="99.651" fill="#FFFFFF" width="54.444" height="1.676"/>
	<rect x="12.451" y="104.663" fill="#FFFFFF" width="54.444" height="1.674"/>
	<rect x="30.851" y="110.51" fill="#FFFFFF" width="36.044" height="1.676"/>
	<g>
		<path fill="#FFFFFF" d="M44.073,20.798v-8.083h1.139l2.591,4.09c0.6,0.947,1.067,1.799,1.451,2.626l0.024-0.012
			c-0.096-1.079-0.12-2.063-0.12-3.322v-3.382h0.983v8.083h-1.055l-2.566-4.102c-0.564-0.9-1.104-1.823-1.511-2.699l-0.036,0.012
			c0.06,1.019,0.084,1.991,0.084,3.334v3.454H44.073z"/>
		<path fill="#FFFFFF" d="M56.154,17.008h-3.142v2.915h3.502v0.875h-4.545v-8.083h4.365v0.875h-3.322v2.555h3.142V17.008z"/>
		<path fill="#FFFFFF" d="M59.3,20.798l-2.051-8.083h1.104l0.959,4.09c0.24,1.007,0.456,2.015,0.6,2.794h0.024
			c0.132-0.804,0.384-1.763,0.66-2.807l1.08-4.078h1.091l0.983,4.102c0.228,0.959,0.444,1.919,0.564,2.771h0.024
			c0.168-0.887,0.396-1.787,0.647-2.794l1.067-4.078h1.067l-2.291,8.083h-1.091l-1.02-4.209c-0.252-1.032-0.42-1.823-0.528-2.639
			h-0.024c-0.144,0.803-0.324,1.595-0.624,2.639l-1.151,4.209H59.3z"/>
		<path fill="#FFFFFF" d="M67.988,19.527c0.468,0.288,1.151,0.528,1.871,0.528c1.067,0,1.691-0.563,1.691-1.379
			c0-0.755-0.432-1.187-1.523-1.607c-1.319-0.468-2.135-1.151-2.135-2.291c0-1.259,1.043-2.195,2.614-2.195
			c0.828,0,1.427,0.192,1.787,0.396l-0.288,0.852c-0.264-0.144-0.803-0.384-1.535-0.384c-1.103,0-1.523,0.66-1.523,1.211
			c0,0.755,0.492,1.127,1.607,1.559c1.367,0.528,2.063,1.188,2.063,2.375c0,1.248-0.923,2.339-2.831,2.339
			c-0.779,0-1.631-0.24-2.063-0.528L67.988,19.527z"/>
	</g>
</g>
</svg>
