<?xml version="1.0" encoding="utf-8"?>
<!-- Generator: Adobe Illustrator 16.0.0, SVG Export Plug-In . SVG Version: 6.00 Build 0)  -->
<!DOCTYPE svg PUBLIC "-//W3C//DTD SVG 1.1//EN" "http://www.w3.org/Graphics/SVG/1.1/DTD/svg11.dtd">
<svg version="1.1" id="Capa_1" xmlns="http://www.w3.org/2000/svg" xmlns:xlink="http://www.w3.org/1999/xlink" x="0px" y="0px"
	 width="116.748px" height="132.667px" viewBox="0 0 116.748 132.667" enable-background="new 0 0 116.748 132.667"
	 xml:space="preserve">
<g>
	<path fill="#FFFFFF" d="M25.077,37.43c-5.681,0-10.302-4.622-10.302-10.302s4.622-10.302,10.302-10.302s10.302,4.622,10.302,10.302
		S30.757,37.43,25.077,37.43z M25.077,18.826c-4.578,0-8.302,3.725-8.302,8.302s3.725,8.302,8.302,8.302s8.302-3.725,8.302-8.302
		S29.654,18.826,25.077,18.826z"/>
	<rect x="43.259" y="21.011" fill="#FFFFFF" width="57.883" height="1.675"/>
	<rect x="43.259" y="26.005" fill="#FFFFFF" width="38.321" height="1.675"/>
	<path fill="#FFFFFF" d="M25.077,63.864c-5.681,0-10.302-4.621-10.302-10.302S19.396,43.26,25.077,43.26s10.302,4.621,10.302,10.302
		S30.757,63.864,25.077,63.864z M25.077,45.26c-4.578,0-8.302,3.725-8.302,8.302s3.725,8.302,8.302,8.302s8.302-3.725,8.302-8.302
		S29.654,45.26,25.077,45.26z"/>
	<rect x="43.259" y="50.03" fill="#FFFFFF" width="57.883" height="1.676"/>
	<rect x="43.258" y="55.024" fill="#FFFFFF" width="57.884" height="1.674"/>
	<path fill="#FFFFFF" d="M25.077,90.479c-5.681,0-10.302-4.622-10.302-10.303s4.622-10.303,10.302-10.303
		s10.302,4.622,10.302,10.303S30.757,90.479,25.077,90.479z M25.077,71.874c-4.578,0-8.302,3.725-8.302,8.303
		s3.725,8.303,8.302,8.303s8.302-3.725,8.302-8.303S29.654,71.874,25.077,71.874z"/>
	<rect x="43.259" y="77.047" fill="#FFFFFF" width="57.883" height="1.676"/>
	<rect x="43.259" y="82.042" fill="#FFFFFF" width="19.161" height="1.674"/>
	<path fill="#FFFFFF" d="M25.077,114.912c-5.681,0-10.302-4.622-10.302-10.302c0-5.682,4.622-10.303,10.302-10.303
		s10.302,4.621,10.302,10.303C35.379,110.29,30.757,114.912,25.077,114.912z M25.077,96.307c-4.578,0-8.302,3.725-8.302,8.303
		c0,4.577,3.725,8.302,8.302,8.302s8.302-3.725,8.302-8.302C33.379,100.032,29.654,96.307,25.077,96.307z"/>
	<rect x="43.259" y="101.063" fill="#FFFFFF" width="57.883" height="1.676"/>
	<rect x="43.259" y="106.057" fill="#FFFFFF" width="38.321" height="1.675"/>
</g>
</svg>
