<?xml version="1.0" encoding="utf-8"?>
<!-- Generator: Adobe Illustrator 16.0.0, SVG Export Plug-In . SVG Version: 6.00 Build 0)  -->
<!DOCTYPE svg PUBLIC "-//W3C//DTD SVG 1.1//EN" "http://www.w3.org/Graphics/SVG/1.1/DTD/svg11.dtd">
<svg version="1.1" xmlns="http://www.w3.org/2000/svg" xmlns:xlink="http://www.w3.org/1999/xlink" x="0px" y="0px" width="358px"
	 height="308px" viewBox="0 0 358 308" enable-background="new 0 0 358 308" xml:space="preserve">
<g id="Capa_1">
</g>
<g id="Capa_2">
	<g>
		<rect x="40.715" y="11.299" fill="#E9EAF0" width="276" height="291.004"/>
		<rect x="40.715" y="11.299" fill="#1F1F1F" width="276.292" height="41"/>
		<text transform="matrix(1 0 0 1 79.4375 37.3018)" fill="#FFFFFF" font-family="'Raleway'" font-size="16">Organizador de proyectos</text>
		<rect x="40.715" y="52.299" fill="#B50744" width="276.292" height="39"/>
		<text transform="matrix(1 0 0 1 56.0459 75.6348)" fill="#FFFFFF" font-family="'Raleway'" font-size="14">Diseño de logo</text>
		<g>
			<g>
				<path fill="#FFFFFF" d="M284.965,66.106c3.109,0.093,5.979,1.902,7.973,5.139c0.204,0.331,0.172,1.012-0.035,1.363
					c-3.332,5.644-10.445,6.751-15.369,2.424c-0.227-0.199-0.496-0.402-0.608-0.663c-0.098-0.23-0.1-0.711,0.025-0.783
					c0.229-0.13,0.648-0.149,0.872-0.017c0.397,0.233,0.692,0.633,1.056,0.931c3.955,3.247,10.041,2.219,12.682-2.167
					c0.147-0.243,0.075-0.774-0.101-1.032c-3.451-5.08-10.466-5.261-14.197-0.384c-0.286,0.374-0.489,0.824-0.822,1.146
					c-0.217,0.209-0.597,0.25-0.903,0.367c-0.054-0.331-0.266-0.757-0.133-0.974c0.471-0.771,1.005-1.521,1.612-2.189
					C278.849,67.25,281.495,66.118,284.965,66.106z"/>
				<path fill="#FFFFFF" d="M284.254,75.131c-1.699,0.013-3.231-1.488-3.259-3.192c-0.028-1.736,1.527-3.301,3.265-3.284
					c1.705,0.017,3.212,1.538,3.211,3.24C287.469,73.595,285.954,75.119,284.254,75.131z M286.204,71.919
					c0.017-0.969-0.941-1.963-1.921-1.997c-0.97-0.033-1.971,0.906-2.021,1.894c-0.051,0.998,0.958,2.047,1.97,2.048
					C285.202,73.865,286.188,72.894,286.204,71.919z"/>
			</g>
			<path fill="#FFFFFF" d="M302.438,82.107H282.92c-0.224,0-0.404-0.182-0.404-0.405v-4.149c0-0.224,0.181-0.405,0.404-0.405
				s0.405,0.181,0.405,0.405v3.744h18.708V62.302h-18.708v4.879c0,0.224-0.182,0.405-0.405,0.405s-0.404-0.181-0.404-0.405v-5.284
				c0-0.224,0.181-0.405,0.404-0.405h19.519c0.224,0,0.404,0.181,0.404,0.405v19.806C302.843,81.926,302.662,82.107,302.438,82.107z
				"/>
			<path fill="#FFFFFF" d="M298.729,65.112h-11.331c-0.223,0-0.404-0.181-0.404-0.405s0.182-0.405,0.404-0.405h11.331
				c0.224,0,0.405,0.181,0.405,0.405S298.953,65.112,298.729,65.112z"/>
			<path fill="#FFFFFF" d="M298.729,67.387h-7.138c-0.223,0-0.404-0.181-0.404-0.405s0.182-0.405,0.404-0.405h7.138
				c0.224,0,0.405,0.182,0.405,0.405S298.953,67.387,298.729,67.387z"/>
			<path fill="#FFFFFF" d="M298.729,77.563h-7.138c-0.223,0-0.404-0.182-0.404-0.405c0-0.224,0.182-0.405,0.404-0.405h7.138
				c0.224,0,0.405,0.182,0.405,0.405C299.135,77.382,298.953,77.563,298.729,77.563z"/>
			<path fill="#FFFFFF" d="M298.729,75.02h-4.575c-0.224,0-0.405-0.181-0.405-0.405c0-0.224,0.182-0.405,0.405-0.405h4.575
				c0.224,0,0.405,0.181,0.405,0.405C299.135,74.838,298.953,75.02,298.729,75.02z"/>
			<path fill="#FFFFFF" d="M298.729,72.475h-3.568c-0.224,0-0.405-0.182-0.405-0.405c0-0.224,0.182-0.405,0.405-0.405h3.568
				c0.224,0,0.405,0.182,0.405,0.405C299.135,72.293,298.953,72.475,298.729,72.475z"/>
			<path fill="#FFFFFF" d="M298.729,69.796h-4.575c-0.224,0-0.405-0.182-0.405-0.405s0.182-0.405,0.405-0.405h4.575
				c0.224,0,0.405,0.181,0.405,0.405S298.953,69.796,298.729,69.796z"/>
			<path fill="#FFFFFF" d="M298.729,79.698h-11.331c-0.223,0-0.404-0.181-0.404-0.405s0.182-0.405,0.404-0.405h11.331
				c0.224,0,0.405,0.181,0.405,0.405S298.953,79.698,298.729,79.698z"/>
		</g>
		<g>
			<rect x="56.295" y="109.491" fill="#FFFFFF" stroke="#BF1046" stroke-miterlimit="10" width="77.988" height="61.5"/>
			<rect x="139.428" y="109.491" fill="#FFFFFF" width="77.988" height="61.5"/>
			<rect x="223.145" y="109.491" fill="#FFFFFF" width="77.988" height="61.5"/>
			<rect x="56.295" y="176.534" fill="#FFFFFF" width="77.988" height="61.5"/>
		</g>
		<g>
			<circle fill="#B50744" cx="284.217" cy="268.116" r="22.333"/>
			<g>
				<path fill="#FFFFFF" d="M290.613,266.969v2.296h-5.125v5.535h-2.542v-5.535h-5.125v-2.296h5.125v-5.534h2.542v5.534H290.613z"/>
			</g>
		</g>
		<circle fill="none" stroke="#FFA92C" stroke-width="3" stroke-miterlimit="10" cx="290.223" cy="72.69" r="26.084"/>
		<rect x="63.007" y="118.668" fill="none" width="66.667" height="47.667"/>
		<text transform="matrix(1 0 0 1 63.0049 125.9683)"><tspan x="0" y="0" fill="#E82A4A" font-family="'Raleway'" font-size="10">Presentación </tspan><tspan x="0" y="15.2" fill="#E82A4A" font-family="'Raleway'" font-size="10">de bocetos</tspan></text>
		<rect x="146.528" y="117.409" fill="none" width="66.667" height="47.667"/>
		<text transform="matrix(1 0 0 1 146.5264 124.709)"><tspan x="0" y="0" fill="#2A2F38" font-family="'Raleway'" font-size="10">Realización </tspan><tspan x="0" y="15.2" fill="#2A2F38" font-family="'Raleway'" font-size="10">de tarjetas y </tspan><tspan x="0" y="30.4" fill="#2A2F38" font-family="'Raleway'" font-size="10">catálogos</tspan></text>
		<rect x="228.806" y="118.41" fill="none" width="66.667" height="47.667"/>
		<text transform="matrix(1 0 0 1 228.8037 125.71)"><tspan x="0" y="0" fill="#2A2F38" font-family="'Raleway'" font-size="10">Seguimiento</tspan><tspan x="0" y="15.2" fill="#2A2F38" font-family="'Raleway'" font-size="10">de imprenta</tspan></text>
		<rect x="63.007" y="185.185" fill="none" width="66.667" height="47.667"/>
		<text transform="matrix(1 0 0 1 63.0049 192.4849)"><tspan x="0" y="0" fill="#2A2F38" font-family="'Raleway'" font-size="10">Gestión de </tspan><tspan x="0" y="15.2" fill="#2A2F38" font-family="'Raleway'" font-size="10">pagos</tspan></text>
	</g>
</g>
</svg>
