<?xml version="1.0" encoding="utf-8"?>
<!-- Generator: Adobe Illustrator 16.0.0, SVG Export Plug-In . SVG Version: 6.00 Build 0)  -->
<!DOCTYPE svg PUBLIC "-//W3C//DTD SVG 1.1//EN" "http://www.w3.org/Graphics/SVG/1.1/DTD/svg11.dtd">
<svg version="1.1" xmlns="http://www.w3.org/2000/svg" xmlns:xlink="http://www.w3.org/1999/xlink" x="0px" y="0px" width="358px"
	 height="308px" viewBox="0 0 358 308" enable-background="new 0 0 358 308" xml:space="preserve">
<g id="Capa_1">
</g>
<g id="Capa_2">
	<g>
		<defs>
			<rect id="SVGID_3_" x="-1661.074" y="-420" width="352" height="342"/>
		</defs>
		<clipPath id="SVGID_2_">
			<use xlink:href="#SVGID_3_"  overflow="visible"/>
		</clipPath>
		<g clip-path="url(#SVGID_2_)">
			
				<image overflow="visible" width="1920" height="1080" xlink:href="F6715BA5.jpg"  transform="matrix(1 0 0 1 -1750.0742 -594.1099)">
			</image>
		</g>
	</g>
	<polygon fill="#FFFFFF" points="46.515,41.577 311.003,42.212 310.538,304.309 46.054,303.678 	"/>
	<rect x="113.31" y="158.402" fill="#DCE5EC" width="178.183" height="67.648"/>
	<text transform="matrix(1 0 0 1 66.418 75.6348)" fill="#E82A4A" font-family="'Raleway-SemiBold'" font-size="15">Paleta de colores</text>
	<g>
		<text transform="matrix(1 0 0 1 66.4189 96.3843)" fill="#1F1F1F" font-family="'Raleway-Medium'" font-size="13">Presentar propuesta de colores</text>
	</g>
	<text transform="matrix(1 0 0 1 66.4189 140.2407)" font-family="'Raleway-Medium'" font-size="11">COMENTARIOS</text>
	<g>
		<circle fill="#2A2F38" cx="82.107" cy="189.85" r="20.042"/>
		<polygon fill="#FFFFFF" points="81.198,202.566 70.519,181.861 93.695,181.861 91.755,184.209 74.442,184.209 81.387,197.741 
			85.708,190.783 81.877,190.783 83.479,188.278 89.988,188.278 		"/>
	</g>
	<polyline fill="#DCE5EC" points="113.817,183.364 107.373,189.809 115.234,196.335 	"/>
	<g>
		<text transform="matrix(1 0 0 1 127.3906 176.8066)" fill="#1F1F1F" font-family="'Raleway-Bold'" font-size="11">Gabriel:</text>
	</g>
	<rect x="127.4" y="186.336" fill="none" width="150" height="35.333"/>
	<text transform="matrix(1 0 0 1 127.3916 194.3662)"><tspan x="0" y="0" font-family="'Raleway'" font-size="11">Estoy trabajando en nuevas </tspan><tspan x="0" y="15.2" font-family="'Raleway'" font-size="11">combinaciones!</tspan></text>
	<rect x="66.414" y="233.961" fill="#DCE5EC" width="178.183" height="67.648"/>
	<polyline fill="#DCE5EC" points="245.155,274.271 251.6,267.825 243.738,261.299 	"/>
	<g>
		<text transform="matrix(1 0 0 1 76.5078 252.3662)" fill="#3535AA" font-family="'Raleway-Bold'" font-size="11">Guillermina:</text>
	</g>
	<rect x="76.501" y="262.896" fill="none" width="150" height="35.333"/>
	<text transform="matrix(1 0 0 1 76.5078 270.9268)"><tspan x="0" y="0" font-family="'Raleway'" font-size="11">Excelente!</tspan><tspan x="0" y="15.2" font-family="'Raleway'" font-size="11">Estoy ansiosa!</tspan></text>
	<g>
		<defs>
			<circle id="SVGID_5_" cx="279.675" cy="267.146" r="20.313"/>
		</defs>
		<clipPath id="SVGID_4_">
			<use xlink:href="#SVGID_5_"  overflow="visible"/>
		</clipPath>
		<g transform="matrix(1 0 0 1 -1.525879e-005 -1.525879e-005)" clip-path="url(#SVGID_4_)">
			
				<image overflow="visible" width="980" height="490" xlink:href="F6715BA7.jpg"  transform="matrix(0.0941 0 0 0.0941 220.4785 243.5186)">
			</image>
		</g>
	</g>
</g>
</svg>
