<?xml version="1.0" encoding="utf-8"?>
<!-- Generator: Adobe Illustrator 16.0.0, SVG Export Plug-In . SVG Version: 6.00 Build 0)  -->
<!DOCTYPE svg PUBLIC "-//W3C//DTD SVG 1.1//EN" "http://www.w3.org/Graphics/SVG/1.1/DTD/svg11.dtd">
<svg version="1.1" xmlns="http://www.w3.org/2000/svg" xmlns:xlink="http://www.w3.org/1999/xlink" x="0px" y="0px" width="358px"
	 height="308px" viewBox="0 0 358 308" enable-background="new 0 0 358 308" xml:space="preserve">
<g id="Capa_1">
	<g>
		<defs>
			<rect id="SVGID_1_" x="-1626.447" y="-246" width="372" height="651"/>
		</defs>
		<clipPath id="SVGID_2_">
			<use xlink:href="#SVGID_1_"  overflow="visible"/>
		</clipPath>
		<g clip-path="url(#SVGID_2_)">
			
				<image overflow="visible" width="1920" height="1080" xlink:href="3C63075A.jpg"  transform="matrix(1 0 0 1 -1701.4468 -407.1099)">
			</image>
		</g>
	</g>
</g>
<g id="Capa_2">
	<g>
		<defs>
			<rect id="SVGID_3_" x="-1290.447" y="-420" width="352" height="342"/>
		</defs>
		<clipPath id="SVGID_4_">
			<use xlink:href="#SVGID_3_"  overflow="visible"/>
		</clipPath>
		<g clip-path="url(#SVGID_4_)">
			
				<image overflow="visible" width="1920" height="1080" xlink:href="3C63075E.jpg"  transform="matrix(1 0 0 1 -1379.4468 -594.1099)">
			</image>
		</g>
	</g>
	<g>
		<rect x="42.478" y="99.596" fill="#FFFFFF" width="127.37" height="201.816"/>
		<rect x="50.865" y="205.988" fill="#E2E2E2" width="110.593" height="36.348"/>
		<g>
			<path fill="#FFFFFF" d="M96.503,79.595h-3.386v8.669h-0.936v-8.669h-3.386v-0.829h7.708V79.595z"/>
			<path fill="#FFFFFF" d="M101.374,88.332c-0.661,0-1.264-0.136-1.812-0.409c-0.551-0.272-1.021-0.633-1.412-1.084
				c-0.394-0.449-0.696-0.965-0.91-1.545c-0.214-0.58-0.322-1.173-0.322-1.778c0-0.635,0.113-1.241,0.342-1.821
				s0.542-1.091,0.942-1.538c0.403-0.446,0.875-0.801,1.421-1.064c0.542-0.264,1.13-0.396,1.765-0.396
				c0.658,0,1.264,0.141,1.812,0.422s1.018,0.649,1.406,1.104c0.386,0.454,0.687,0.97,0.902,1.545
				c0.214,0.576,0.322,1.161,0.322,1.758c0,0.633-0.113,1.241-0.342,1.821c-0.226,0.58-0.539,1.09-0.936,1.532
				c-0.395,0.44-0.867,0.792-1.412,1.057C102.597,88.2,102.006,88.332,101.374,88.332z M97.854,83.516
				c0,0.517,0.084,1.015,0.255,1.491c0.168,0.477,0.409,0.902,0.722,1.271c0.313,0.37,0.684,0.664,1.11,0.883
				c0.429,0.219,0.904,0.329,1.432,0.329c0.536,0,1.02-0.116,1.458-0.348c0.438-0.233,0.806-0.537,1.11-0.91
				c0.304-0.375,0.539-0.799,0.705-1.271c0.162-0.473,0.246-0.954,0.246-1.445c0-0.518-0.087-1.015-0.261-1.493
				c-0.174-0.477-0.417-0.899-0.73-1.264c-0.311-0.365-0.681-0.658-1.11-0.877c-0.426-0.219-0.902-0.328-1.417-0.328
				c-0.537,0-1.021,0.113-1.458,0.341c-0.438,0.228-0.809,0.529-1.11,0.903c-0.304,0.375-0.539,0.799-0.702,1.271
				C97.938,82.543,97.854,83.024,97.854,83.516z"/>
			<path fill="#FFFFFF" d="M107.636,88.264v-9.498h3.209c0.76,0,1.423,0.125,1.995,0.374c0.571,0.251,1.046,0.59,1.426,1.018
				c0.38,0.428,0.661,0.929,0.85,1.506c0.188,0.574,0.281,1.187,0.281,1.838c0,0.723-0.107,1.377-0.322,1.961
				c-0.214,0.584-0.516,1.083-0.91,1.498c-0.391,0.415-0.87,0.736-1.432,0.964s-1.188,0.34-1.887,0.34H107.636L107.636,88.264z
				 M114.46,83.501c0-0.571-0.081-1.095-0.241-1.571c-0.163-0.477-0.397-0.89-0.705-1.238c-0.307-0.348-0.684-0.618-1.13-0.811
				c-0.444-0.191-0.957-0.287-1.537-0.287h-2.29v7.84h2.29c0.588,0,1.107-0.1,1.557-0.3c0.453-0.202,0.829-0.479,1.131-0.829
				c0.304-0.354,0.533-0.768,0.69-1.245S114.46,84.063,114.46,83.501z"/>
			<path fill="#FFFFFF" d="M121.096,88.332c-0.661,0-1.264-0.136-1.812-0.409c-0.551-0.272-1.021-0.633-1.412-1.084
				c-0.392-0.449-0.696-0.965-0.91-1.545c-0.215-0.58-0.322-1.173-0.322-1.778c0-0.635,0.116-1.241,0.342-1.821
				s0.542-1.091,0.945-1.538c0.4-0.446,0.873-0.801,1.417-1.064c0.542-0.264,1.13-0.396,1.766-0.396
				c0.661,0,1.264,0.141,1.812,0.422s1.018,0.649,1.406,1.104c0.388,0.454,0.687,0.97,0.901,1.545
				c0.215,0.576,0.322,1.161,0.322,1.758c0,0.633-0.113,1.241-0.342,1.821c-0.226,0.58-0.54,1.09-0.937,1.532
				c-0.394,0.44-0.867,0.792-1.409,1.057C122.319,88.2,121.728,88.332,121.096,88.332z M117.576,83.516
				c0,0.517,0.084,1.015,0.255,1.491c0.168,0.477,0.409,0.902,0.722,1.271s0.684,0.664,1.11,0.883
				c0.429,0.219,0.907,0.329,1.432,0.329c0.536,0,1.021-0.116,1.458-0.348c0.438-0.233,0.809-0.537,1.11-0.91
				c0.305-0.375,0.539-0.799,0.705-1.271c0.165-0.473,0.247-0.954,0.247-1.445c0-0.518-0.087-1.015-0.261-1.493
				c-0.174-0.477-0.417-0.899-0.73-1.264c-0.31-0.365-0.681-0.658-1.11-0.877c-0.426-0.219-0.901-0.328-1.417-0.328
				c-0.536,0-1.021,0.113-1.458,0.341c-0.438,0.228-0.809,0.529-1.11,0.903c-0.305,0.375-0.54,0.799-0.702,1.271
				C117.66,82.543,117.576,83.024,117.576,83.516z"/>
		</g>
		<path fill="#EABC28" d="M95.358,214.236c0,1.099-1.136,1.988-2.542,1.988h-34.15c-1.403,0-2.542-0.89-2.542-1.988l0,0
			c0-1.099,1.139-1.992,2.542-1.992h34.15C94.222,212.245,95.358,213.138,95.358,214.236L95.358,214.236z"/>
		<g>
			<rect x="50.865" y="106.201" fill="#E2E2E2" width="110.593" height="50.275"/>
			<path fill="#EABC28" d="M77.732,114.449c0,1.099-0.626,1.99-1.4,1.99H57.523c-0.771,0-1.4-0.892-1.4-1.99l0,0
				c0-1.1,0.629-1.99,1.4-1.99h18.809C77.106,112.458,77.732,113.349,77.732,114.449L77.732,114.449z"/>
			<path fill="#CCCCCC" d="M149.093,121.406c0,1.025-0.603,1.855-1.345,1.855H57.752c-0.742,0-1.345-0.831-1.345-1.855l0,0
				c0-1.023,0.603-1.854,1.345-1.854h89.996C148.491,119.553,149.093,120.383,149.093,121.406L149.093,121.406z"/>
			<path fill="#CCCCCC" d="M149.093,141.891c0,1.025-0.603,1.854-1.345,1.854H57.752c-0.742,0-1.345-0.829-1.345-1.854l0,0
				c0-1.025,0.603-1.855,1.345-1.855h89.996C148.491,140.037,149.093,140.866,149.093,141.891L149.093,141.891z"/>
			<path fill="#CCCCCC" d="M115.544,148.719c0,1.023-0.382,1.855-0.858,1.855h-57.42c-0.473,0-0.858-0.832-0.858-1.855l0,0
				c0-1.023,0.386-1.855,0.858-1.855h57.42C115.162,146.863,115.544,147.695,115.544,148.719L115.544,148.719z"/>
			<path fill="#CCCCCC" d="M153.642,128.235c0,1.025-0.632,1.854-1.412,1.854H57.819c-0.78,0-1.412-0.829-1.412-1.854l0,0
				c0-1.025,0.632-1.855,1.412-1.855h94.411C153.01,126.38,153.642,127.21,153.642,128.235L153.642,128.235z"/>
			<path fill="#CCCCCC" d="M133.172,135.062c0,1.025-0.499,1.855-1.113,1.855H57.521c-0.614,0-1.113-0.831-1.113-1.855l0,0
				c0-1.023,0.499-1.854,1.113-1.854h74.539C132.673,133.207,133.172,134.039,133.172,135.062L133.172,135.062z"/>
		</g>
		<path fill="#CCCCCC" d="M149.093,228.989c0,1.023-0.603,1.853-1.345,1.853H57.752c-0.742,0-1.345-0.829-1.345-1.853l0,0
			c0-1.026,0.603-1.855,1.345-1.855h89.996C148.491,227.134,149.093,227.963,149.093,228.989L149.093,228.989z"/>
		<path fill="#CCCCCC" d="M115.544,235.816c0,1.023-0.382,1.853-0.858,1.853h-57.42c-0.473,0-0.858-0.829-0.858-1.853l0,0
			c0-1.026,0.386-1.855,0.858-1.855h57.42C115.162,233.961,115.544,234.79,115.544,235.816L115.544,235.816z"/>
		<path fill="#CCCCCC" d="M133.172,222.159c0,1.026-0.499,1.855-1.113,1.855H57.521c-0.614,0-1.113-0.829-1.113-1.855l0,0
			c0-1.023,0.499-1.855,1.113-1.855h74.539C132.673,220.304,133.172,221.136,133.172,222.159L133.172,222.159z"/>
		<rect x="188.352" y="99.596" fill="#FFFFFF" width="127.371" height="201.816"/>
		<rect x="196.74" y="109.263" fill="#E2E2E2" width="110.594" height="36.348"/>
		<path fill="#1C0F4C" d="M232.705,116.371c0,1.099-0.89,1.99-1.991,1.99h-26.723c-1.099,0-1.992-0.892-1.992-1.99l0,0
			c0-1.1,0.894-1.99,1.992-1.99h26.723C231.815,114.381,232.705,115.271,232.705,116.371L232.705,116.371z"/>
		<path fill="#CCCCCC" d="M294.969,123.898c0,1.026-0.603,1.855-1.345,1.855h-89.996c-0.742,0-1.346-0.829-1.346-1.855l0,0
			c0-1.023,0.604-1.854,1.346-1.854h89.996C294.367,122.044,294.969,122.875,294.969,123.898L294.969,123.898z"/>
		<path fill="#CCCCCC" d="M299.518,130.726c0,1.026-0.632,1.855-1.412,1.855h-94.411c-0.78,0-1.412-0.829-1.412-1.855l0,0
			c0-1.023,0.632-1.854,1.412-1.854h94.411C298.886,128.872,299.518,129.702,299.518,130.726L299.518,130.726z"/>
		<path fill="#CCCCCC" d="M279.045,137.554c0,1.025-0.499,1.855-1.11,1.855h-74.539c-0.614,0-1.113-0.831-1.113-1.855l0,0
			c0-1.023,0.499-1.855,1.113-1.855h74.536C278.546,135.699,279.045,136.529,279.045,137.554L279.045,137.554z"/>
		<g>
			<rect x="196.74" y="194.703" fill="#E2E2E2" width="110.594" height="36.348"/>
			<rect x="196.74" y="151.634" fill="#FFA92C" width="110.594" height="36.349"/>
			<path fill="#1C0F4C" d="M241.234,202.949c0,1.099-1.137,1.99-2.542,1.99h-34.147c-1.406,0-2.546-0.891-2.546-1.99l0,0
				c0-1.1,1.14-1.99,2.546-1.99h34.147C240.097,200.959,241.234,201.849,241.234,202.949L241.234,202.949z"/>
			<path fill="#CCCCCC" d="M294.969,217.7c0,1.026-0.603,1.855-1.345,1.855h-89.996c-0.742,0-1.346-0.829-1.346-1.855l0,0
				c0-1.023,0.604-1.854,1.346-1.854h89.996C294.367,215.847,294.969,216.677,294.969,217.7L294.969,217.7z"/>
			<path fill="#CCCCCC" d="M261.419,224.529c0,1.024-0.386,1.854-0.858,1.854h-57.42c-0.473,0-0.858-0.829-0.858-1.854l0,0
				c0-1.025,0.386-1.855,0.858-1.855h57.42C261.034,222.674,261.419,223.504,261.419,224.529L261.419,224.529z"/>
			<path fill="#CCCCCC" d="M279.045,210.872c0,1.024-0.499,1.855-1.11,1.855h-74.539c-0.614,0-1.113-0.831-1.113-1.855l0,0
				c0-1.023,0.499-1.854,1.113-1.854h74.536C278.546,209.018,279.045,209.849,279.045,210.872L279.045,210.872z"/>
		</g>
		<g>
			<path fill="#FFFFFF" d="M210.594,88.264v-9.485h0.925v9.485H210.594z"/>
			<path fill="#FFFFFF" d="M214.85,80.505v7.759h-0.925v-9.498h0.722l6.291,7.907v-7.894h0.922v9.485h-0.803L214.85,80.505z"/>
			<path fill="#FFFFFF" d="M224.269,88.264v-9.498h3.934c0.412,0,0.789,0.087,1.131,0.261c0.345,0.174,0.641,0.401,0.89,0.681
				c0.25,0.281,0.444,0.6,0.583,0.957c0.137,0.358,0.206,0.719,0.206,1.084c0,0.393-0.064,0.77-0.194,1.13
				c-0.128,0.361-0.313,0.68-0.554,0.957c-0.241,0.276-0.53,0.499-0.864,0.669c-0.333,0.168-0.707,0.253-1.116,0.253h-3.093v3.505
				H224.269z M225.194,83.93h3.035c0.278,0,0.53-0.061,0.757-0.181c0.229-0.12,0.423-0.281,0.582-0.481
				c0.16-0.202,0.284-0.434,0.374-0.696c0.09-0.264,0.134-0.538,0.134-0.823c0-0.294-0.05-0.573-0.153-0.836
				c-0.102-0.262-0.241-0.493-0.415-0.688c-0.174-0.197-0.38-0.351-0.614-0.462c-0.238-0.112-0.484-0.168-0.742-0.168h-2.96v4.337
				H225.194z"/>
			<path fill="#FFFFFF" d="M232.578,88.264v-9.498h4c0.412,0,0.792,0.087,1.137,0.261c0.351,0.174,0.646,0.401,0.898,0.681
				c0.25,0.281,0.444,0.6,0.58,0.957c0.14,0.358,0.209,0.719,0.209,1.084c0,0.348-0.053,0.68-0.154,0.997
				c-0.104,0.316-0.249,0.602-0.435,0.855c-0.188,0.255-0.411,0.469-0.67,0.642c-0.258,0.174-0.548,0.292-0.869,0.355l2.343,3.666
				h-1.059l-2.247-3.505h-2.809v3.505H232.578z M233.502,83.93h3.116c0.275,0,0.53-0.061,0.757-0.181
				c0.226-0.12,0.42-0.282,0.583-0.488c0.159-0.205,0.283-0.436,0.373-0.696c0.09-0.258,0.134-0.53,0.134-0.816
				s-0.052-0.56-0.153-0.822c-0.104-0.264-0.241-0.495-0.415-0.69c-0.174-0.197-0.38-0.353-0.614-0.468
				c-0.238-0.116-0.487-0.176-0.745-0.176H233.5v4.337H233.502z"/>
			<path fill="#FFFFFF" d="M245.208,88.332c-0.661,0-1.264-0.136-1.812-0.409c-0.549-0.272-1.021-0.633-1.412-1.084
				c-0.392-0.449-0.696-0.965-0.91-1.545c-0.215-0.58-0.322-1.173-0.322-1.778c0-0.635,0.116-1.241,0.342-1.821
				c0.229-0.58,0.543-1.091,0.942-1.538c0.403-0.446,0.876-0.801,1.421-1.064c0.542-0.264,1.131-0.396,1.766-0.396
				c0.661,0,1.264,0.141,1.812,0.422s1.018,0.649,1.406,1.104c0.389,0.454,0.689,0.97,0.901,1.545
				c0.215,0.576,0.322,1.161,0.322,1.758c0,0.633-0.113,1.241-0.34,1.821c-0.229,0.58-0.542,1.09-0.939,1.532
				c-0.394,0.44-0.866,0.792-1.408,1.057C246.432,88.2,245.843,88.332,245.208,88.332z M241.689,83.516
				c0,0.517,0.087,1.015,0.255,1.491c0.171,0.477,0.409,0.902,0.722,1.271c0.313,0.37,0.685,0.664,1.11,0.883
				c0.43,0.219,0.908,0.329,1.433,0.329c0.536,0,1.021-0.116,1.458-0.348c0.438-0.233,0.809-0.537,1.113-0.91
				c0.302-0.375,0.536-0.799,0.701-1.271c0.166-0.473,0.247-0.954,0.247-1.445c0-0.518-0.087-1.015-0.261-1.493
				c-0.175-0.477-0.418-0.899-0.729-1.264c-0.313-0.365-0.684-0.658-1.112-0.877c-0.427-0.219-0.899-0.328-1.418-0.328
				c-0.533,0-1.021,0.113-1.458,0.341c-0.438,0.228-0.81,0.529-1.11,0.903c-0.305,0.375-0.536,0.799-0.702,1.271
				C241.773,82.543,241.689,83.024,241.689,83.516z"/>
			<path fill="#FFFFFF" d="M258.346,86.887c-0.881,0.963-1.896,1.445-3.035,1.445c-0.644,0-1.234-0.139-1.773-0.415
				c-0.54-0.277-1.009-0.642-1.406-1.097c-0.395-0.455-0.704-0.971-0.928-1.545c-0.224-0.575-0.336-1.167-0.336-1.774
				c0-0.632,0.109-1.239,0.327-1.819c0.221-0.58,0.521-1.091,0.91-1.532c0.389-0.44,0.853-0.794,1.392-1.057
				c0.539-0.262,1.125-0.394,1.76-0.394c0.464,0,0.884,0.051,1.264,0.154c0.38,0.103,0.719,0.245,1.018,0.427
				s0.56,0.402,0.783,0.657c0.223,0.254,0.411,0.533,0.563,0.836l-0.726,0.481c-0.31-0.588-0.719-1.021-1.217-1.297
				c-0.499-0.277-1.067-0.416-1.699-0.416c-0.527,0-1,0.111-1.426,0.334c-0.424,0.224-0.783,0.521-1.082,0.89
				c-0.298,0.37-0.527,0.794-0.689,1.271c-0.16,0.477-0.241,0.97-0.241,1.479c0,0.535,0.093,1.043,0.275,1.524
				c0.183,0.483,0.436,0.903,0.754,1.266c0.322,0.361,0.699,0.648,1.131,0.862c0.435,0.215,0.904,0.322,1.412,0.322
				c0.545,0,1.061-0.127,1.551-0.382c0.493-0.254,0.965-0.652,1.42-1.196v-1.593h-2.102v-0.723h2.905v4.668h-0.804V86.887
				L258.346,86.887z"/>
			<path fill="#FFFFFF" d="M261.129,88.264v-9.498h4.001c0.411,0,0.791,0.087,1.14,0.261c0.348,0.174,0.646,0.401,0.896,0.681
				c0.249,0.281,0.443,0.6,0.582,0.957c0.137,0.358,0.206,0.719,0.206,1.084c0,0.348-0.049,0.68-0.153,0.997
				c-0.102,0.316-0.249,0.602-0.435,0.855c-0.188,0.255-0.412,0.469-0.67,0.642c-0.258,0.174-0.548,0.292-0.87,0.355l2.343,3.666
				h-1.059l-2.246-3.505h-2.81v3.505H261.129z M262.054,83.93h3.116c0.278,0,0.528-0.061,0.757-0.181
				c0.229-0.12,0.421-0.282,0.583-0.488c0.159-0.205,0.284-0.436,0.374-0.696c0.09-0.258,0.133-0.53,0.133-0.816
				s-0.049-0.56-0.153-0.822c-0.104-0.264-0.24-0.495-0.414-0.69c-0.175-0.197-0.38-0.353-0.618-0.468
				c-0.234-0.116-0.483-0.176-0.742-0.176h-3.038v4.337H262.054z"/>
			<path fill="#FFFFFF" d="M276.343,87.435v0.829h-6.383v-9.498h6.265v0.829h-5.341v3.425h4.656v0.79h-4.656v3.625H276.343z"/>
			<path fill="#FFFFFF" d="M283.583,80.544c-0.267-0.302-0.626-0.548-1.078-0.735c-0.45-0.188-0.954-0.281-1.517-0.281
				c-0.85,0-1.464,0.158-1.847,0.476c-0.383,0.316-0.577,0.747-0.577,1.292c0,0.284,0.053,0.519,0.154,0.701
				c0.104,0.183,0.264,0.341,0.48,0.476c0.221,0.133,0.496,0.25,0.832,0.348c0.334,0.098,0.729,0.195,1.184,0.294
				c0.507,0.106,0.962,0.225,1.365,0.355c0.399,0.129,0.745,0.294,1.029,0.495c0.287,0.201,0.504,0.446,0.657,0.736
				c0.151,0.29,0.227,0.648,0.227,1.077c0,0.438-0.084,0.816-0.255,1.137c-0.168,0.322-0.406,0.588-0.708,0.803
				c-0.304,0.215-0.663,0.373-1.084,0.476c-0.42,0.103-0.875,0.154-1.365,0.154c-1.49,0-2.76-0.459-3.813-1.377l0.455-0.764
				c0.349,0.367,0.815,0.676,1.403,0.931c0.589,0.254,1.247,0.381,1.969,0.381c0.757,0,1.351-0.136,1.78-0.409
				c0.429-0.272,0.641-0.685,0.641-1.238c0-0.294-0.062-0.542-0.18-0.742c-0.122-0.201-0.302-0.375-0.543-0.521
				c-0.24-0.146-0.542-0.274-0.904-0.381c-0.359-0.107-0.776-0.213-1.249-0.32c-0.502-0.116-0.937-0.238-1.313-0.362
				c-0.374-0.125-0.688-0.281-0.942-0.468s-0.446-0.412-0.574-0.674c-0.13-0.264-0.193-0.587-0.193-0.971
				c0-0.438,0.081-0.828,0.246-1.171c0.165-0.342,0.397-0.627,0.695-0.855c0.299-0.228,0.655-0.402,1.07-0.522
				c0.417-0.12,0.872-0.181,1.371-0.181c0.626,0,1.186,0.097,1.682,0.289c0.492,0.191,0.941,0.461,1.345,0.809L283.583,80.544z"/>
			<path fill="#FFFFFF" d="M291.772,80.544c-0.27-0.302-0.626-0.548-1.078-0.735c-0.449-0.188-0.957-0.281-1.52-0.281
				c-0.847,0-1.461,0.158-1.847,0.476c-0.383,0.316-0.574,0.747-0.574,1.292c0,0.284,0.05,0.519,0.154,0.701
				c0.102,0.183,0.264,0.341,0.481,0.476c0.217,0.133,0.495,0.25,0.829,0.348c0.336,0.098,0.73,0.195,1.186,0.294
				c0.507,0.106,0.962,0.225,1.365,0.355c0.4,0.129,0.745,0.294,1.029,0.495c0.287,0.201,0.504,0.446,0.655,0.736
				c0.153,0.29,0.229,0.648,0.229,1.077c0,0.438-0.087,0.816-0.255,1.137c-0.171,0.322-0.406,0.588-0.71,0.803
				c-0.302,0.215-0.664,0.373-1.082,0.476c-0.42,0.103-0.875,0.154-1.365,0.154c-1.49,0-2.763-0.459-3.814-1.377l0.455-0.764
				c0.348,0.367,0.817,0.676,1.405,0.931c0.589,0.254,1.244,0.381,1.966,0.381c0.76,0,1.354-0.136,1.783-0.409
				c0.426-0.272,0.641-0.685,0.641-1.238c0-0.294-0.062-0.542-0.18-0.742c-0.122-0.201-0.302-0.375-0.542-0.521
				c-0.244-0.146-0.543-0.274-0.905-0.381c-0.359-0.107-0.776-0.213-1.252-0.32c-0.499-0.116-0.937-0.238-1.311-0.362
				s-0.689-0.281-0.942-0.468c-0.255-0.187-0.446-0.412-0.576-0.674c-0.131-0.264-0.191-0.587-0.191-0.971
				c0-0.438,0.081-0.828,0.246-1.171c0.165-0.342,0.397-0.627,0.696-0.855c0.298-0.228,0.654-0.402,1.069-0.522
				c0.414-0.12,0.873-0.181,1.371-0.181c0.626,0,1.186,0.097,1.679,0.289c0.495,0.191,0.945,0.461,1.345,0.809L291.772,80.544z"/>
		</g>
		<g>
			<g>
				<polyline fill="none" stroke="#FFA92C" stroke-miterlimit="10" points="50.866,162.613 50.866,161.613 51.866,161.613 				"/>
				
					<line fill="none" stroke="#FFA92C" stroke-miterlimit="10" stroke-dasharray="1.9744,1.9744" x1="53.84" y1="161.613" x2="159.471" y2="161.613"/>
				<polyline fill="none" stroke="#FFA92C" stroke-miterlimit="10" points="160.458,161.613 161.458,161.613 161.458,162.613 				
					"/>
				
					<line fill="none" stroke="#FFA92C" stroke-miterlimit="10" stroke-dasharray="2.0205,2.0205" x1="161.458" y1="164.633" x2="161.458" y2="195.952"/>
				<polyline fill="none" stroke="#FFA92C" stroke-miterlimit="10" points="161.458,196.962 161.458,197.962 160.458,197.962 				
					"/>
				
					<line fill="none" stroke="#FFA92C" stroke-miterlimit="10" stroke-dasharray="1.9744,1.9744" x1="158.484" y1="197.962" x2="52.853" y2="197.962"/>
				<polyline fill="none" stroke="#FFA92C" stroke-miterlimit="10" points="51.866,197.962 50.866,197.962 50.866,196.962 				"/>
				
					<line fill="none" stroke="#FFA92C" stroke-miterlimit="10" stroke-dasharray="2.0205,2.0205" x1="50.866" y1="194.941" x2="50.866" y2="163.623"/>
			</g>
		</g>
		<g>
			
				<rect x="118.258" y="146.606" transform="matrix(-1 -0.0021 0.0021 -1 346.7695 329.9168)" fill="#E2E2E2" width="110.593" height="36.347"/>
			<path fill="#EABC28" d="M154.246,153.675c-0.001,1.098-0.895,1.987-1.996,1.985l-26.723-0.054
				c-1.101-0.003-1.99-0.896-1.987-1.995l0,0c0.002-1.1,0.895-1.987,1.996-1.986l26.723,0.056
				C153.359,151.683,154.248,152.575,154.246,153.675L154.246,153.675z"/>
			<path fill="#CCCCCC" d="M216.495,161.33c-0.002,1.026-0.607,1.854-1.349,1.853l-89.996-0.185
				c-0.743-0.001-1.344-0.832-1.341-1.859l0,0c0.002-1.023,0.606-1.852,1.349-1.851l89.996,0.186
				C215.895,159.475,216.497,160.307,216.495,161.33L216.495,161.33z"/>
			<path fill="#CCCCCC" d="M221.029,168.167c-0.002,1.026-0.636,1.854-1.416,1.853l-94.411-0.194
				c-0.78-0.002-1.41-0.833-1.408-1.859l0,0c0.002-1.023,0.636-1.853,1.417-1.851l94.41,0.194
				C220.401,166.312,221.032,167.144,221.029,168.167L221.029,168.167z"/>
			<path fill="#CCCCCC" d="M200.544,174.954c-0.002,1.024-0.502,1.854-1.117,1.853l-74.538-0.154
				c-0.614-0.001-1.111-0.833-1.109-1.858l0,0c0.002-1.022,0.502-1.854,1.117-1.852l74.538,0.153
				C200.05,173.097,200.546,173.929,200.544,174.954L200.544,174.954z"/>
		</g>
	</g>
</g>
</svg>
