<?xml version="1.0" encoding="utf-8"?>
<!-- Generator: Adobe Illustrator 16.0.0, SVG Export Plug-In . SVG Version: 6.00 Build 0)  -->
<!DOCTYPE svg PUBLIC "-//W3C//DTD SVG 1.1//EN" "http://www.w3.org/Graphics/SVG/1.1/DTD/svg11.dtd">
<svg version="1.1" id="Capa_1" xmlns="http://www.w3.org/2000/svg" xmlns:xlink="http://www.w3.org/1999/xlink" x="0px" y="0px"
	 width="116.748px" height="132.667px" viewBox="0 0 116.748 132.667" enable-background="new 0 0 116.748 132.667"
	 xml:space="preserve">
<rect x="-252.626" y="-52.498" fill="#141414" width="185" height="223"/>
<g>
	<g>
		<path fill="#FFFFFF" d="M265.185,68.25l-0.203-0.002c-0.448-0.012-0.896-0.014-1.344-0.014l-2.265,0.009
			c-7.815-0.063-8.332-0.526-9.233-8.274c-0.315-2.703-0.92-4.125-3.353-4.395c-0.582-0.063-1.173-0.297-1.618-0.641
			c-2.753-2.134-5.15-1.834-8.186,1.028c-0.512,0.479-1.074,0.863-1.618,1.231c-0.21,0.143-0.419,0.283-0.622,0.431
			c-2.053,1.479-4.233,1.292-6.072-0.521c-1.609-1.588-3.188-3.207-4.768-4.824l-0.854-0.875c-1.813-1.855-1.939-3.954-0.369-6.068
			l0.588-0.787c1.125-1.505,2.287-3.063,3.265-4.665c0.221-0.362,0.269-1.153,0.101-1.659c-0.224-0.677-0.551-1.338-0.896-2.037
			c-0.497-1.008-1.012-2.049-1.238-3.201c-0.395-1.993-1.374-2.771-3.743-2.969c-1.198-0.1-2.374-0.342-3.511-0.574
			c-0.525-0.108-1.053-0.217-1.579-0.311c-2.399-0.426-3.729-2.029-3.746-4.516c-0.012-1.929-0.008-3.855-0.004-5.783l0.003-2.213
			c0.002-2.605,1.365-4.202,3.941-4.619l0.502-0.081c2.087-0.337,4.244-0.685,6.306-1.192c0.308-0.074,0.835-0.521,1.058-0.984
			c0.282-0.59,0.49-1.24,0.711-1.93c0.338-1.059,0.688-2.154,1.348-3.109c1.365-1.979,0.902-3.266-0.575-5.239
			c-4.869-6.501-5.122-7.099-0.376-11.69c0.467-0.452,0.986-0.955,1.557-1.521c2.536-2.52,3.81-3.785,5.502-3.785
			c1.56,0,2.963,1.117,5.516,3.257c1.387,1.162,2.539,1.658,3.854,1.658c0.912,0,1.961-0.232,3.403-0.754
			c4.151-1.503,5.782-3.567,5.817-7.358c0.006-0.643,0.136-1.244,0.26-1.824c0.051-0.239,0.103-0.478,0.143-0.716
			c0.411-2.422,2.008-3.77,4.496-3.796c2.754-0.029,5.51-0.044,8.264,0.021c2.44,0.057,4.01,1.435,4.418,3.879
			c0.133,0.803,0.205,1.646,0.275,2.462c0.162,1.885,0.314,3.667,1.148,4.796c0.586,0.794,1.886,1.229,3.262,1.688
			c1.074,0.358,2.186,0.729,3.145,1.328c1.78,1.11,2.865,1.021,4.521-0.478c0.862-0.781,1.828-1.419,2.761-2.036
			c0.488-0.323,0.979-0.646,1.449-0.988c1.979-1.438,4.076-1.265,5.857,0.476c2.026,1.979,3.983,3.978,5.815,5.854
			c1.613,1.652,1.808,3.708,0.534,5.642c-0.537,0.814-1.182,1.6-1.807,2.359c-1.254,1.529-2.44,2.975-2.621,4.424
			c-0.19,1.529,0.848,3.438,1.852,5.282c0.352,0.646,0.698,1.284,0.998,1.909c0.299,0.623,1.041,1.304,1.588,1.455
			c1.536,0.428,3.188,0.662,4.783,0.889c0.508,0.072,1.016,0.144,1.521,0.222c2.644,0.407,4.105,2.101,4.116,4.771
			c0.009,1.93-0.006,3.859-0.021,5.787l-0.014,1.971c-0.017,2.606-1.486,4.298-4.138,4.762c-0.528,0.094-1.058,0.199-1.586,0.305
			c-1.378,0.275-2.804,0.561-4.254,0.631c-1.34,0.064-1.817,0.463-2.224,1.855c-0.545,1.87-1.375,3.82-2.537,5.962
			c-0.445,0.823-0.416,1.204,0.152,1.94c0.834,1.08,1.609,2.215,2.359,3.313c0.516,0.752,1.029,1.506,1.564,2.244
			c1.449,2.001,1.283,4.079-0.465,5.852c-1.863,1.889-3.781,3.787-5.867,5.805c-1.711,1.656-3.815,1.806-5.864,0.394
			c-0.738-0.508-1.451-1.106-2.142-1.688c-1.451-1.219-2.822-2.371-4.205-2.563c-1.133-0.154-2.455,0.525-3.89,1.245
			c-0.978,0.491-1.989,0.999-3.034,1.299c-1.455,0.417-1.963,1.002-2.093,2.406c-0.099,1.063-0.299,2.108-0.494,3.118
			c-0.159,0.826-0.31,1.607-0.409,2.4C269.745,66.755,268.045,68.25,265.185,68.25z M263.638,66.235
			c0.463,0,0.926,0.002,1.391,0.014l0.156,0.002c1.854,0,2.703-0.746,2.933-2.574c0.108-0.857,0.271-1.707,0.43-2.529
			c0.194-1.008,0.377-1.959,0.468-2.924c0.205-2.225,1.293-3.504,3.531-4.145c0.867-0.249,1.793-0.715,2.688-1.164
			c1.643-0.825,3.375-1.674,5.063-1.438c1.952,0.271,3.61,1.664,5.214,3.012c0.686,0.576,1.331,1.119,1.99,1.572
			c1.262,0.869,2.293,0.828,3.34-0.184c2.073-2.006,3.98-3.895,5.833-5.771c1.067-1.082,1.147-2.061,0.269-3.272
			c-0.545-0.754-1.07-1.521-1.596-2.29c-0.732-1.073-1.492-2.186-2.289-3.218c-1.055-1.363-1.152-2.595-0.328-4.115
			c1.092-2.017,1.869-3.838,2.375-5.567c0.642-2.203,1.852-3.188,4.045-3.297c1.303-0.063,2.594-0.32,3.961-0.593
			c0.543-0.109,1.086-0.217,1.631-0.313c1.707-0.3,2.473-1.164,2.482-2.807l0.014-1.972c0.016-1.921,0.029-3.843,0.021-5.763
			c-0.007-1.705-0.73-2.543-2.421-2.804c-0.498-0.077-0.998-0.147-1.498-0.218c-1.659-0.236-3.377-0.479-5.038-0.941
			c-1.248-0.347-2.382-1.529-2.855-2.52c-0.285-0.594-0.616-1.201-0.951-1.816c-1.155-2.123-2.35-4.318-2.079-6.484
			c0.252-2.025,1.681-3.764,3.062-5.446c0.59-0.72,1.201-1.464,1.681-2.191c0.763-1.158,0.669-2.157-0.296-3.145
			c-1.822-1.868-3.771-3.856-5.781-5.82c-1.089-1.063-2.098-1.152-3.284-0.289c-0.495,0.36-1.009,0.7-1.522,1.039
			c-0.91,0.603-1.771,1.171-2.521,1.85c-2.308,2.09-4.366,2.286-6.921,0.692c-0.759-0.474-1.755-0.806-2.719-1.128
			c-1.61-0.537-3.275-1.093-4.237-2.395c-1.17-1.584-1.354-3.734-1.533-5.813c-0.069-0.812-0.136-1.579-0.256-2.304
			c-0.249-1.493-1.019-2.174-2.491-2.209c-2.73-0.063-5.463-0.049-8.195-0.02c-1.514,0.016-2.297,0.673-2.545,2.13
			c-0.045,0.267-0.103,0.534-0.16,0.801c-0.107,0.505-0.209,0.983-0.215,1.424c-0.043,4.666-2.176,7.423-7.137,9.22
			c-1.669,0.604-2.929,0.874-4.082,0.874c-1.801,0-3.386-0.656-5.14-2.126c-2.069-1.735-3.388-2.79-4.229-2.79
			c-0.869,0-2.082,1.206-4.093,3.204c-0.577,0.573-1.103,1.082-1.575,1.539c-1.975,1.91-2.846,2.788-2.812,3.594
			c0.041,0.979,1.286,2.642,3.349,5.396c1.629,2.174,2.799,4.553,0.668,7.638c-0.49,0.712-0.781,1.62-1.089,2.582
			c-0.231,0.724-0.47,1.472-0.813,2.186c-0.397,0.832-1.344,1.808-2.383,2.063c-2.14,0.526-4.338,0.881-6.465,1.224l-0.5,0.081
			c-1.604,0.26-2.261,1.026-2.262,2.646l-0.003,2.215c-0.003,1.922-0.007,3.844,0.004,5.767c0.011,1.535,0.636,2.3,2.097,2.56
			c0.543,0.097,1.088,0.208,1.631,0.319c1.129,0.231,2.195,0.451,3.274,0.541c2.194,0.184,4.808,0.869,5.539,4.576
			c0.177,0.891,0.61,1.771,1.069,2.7c0.361,0.729,0.734,1.486,1.002,2.293c0.305,0.916,0.303,2.355-0.29,3.33
			c-1.027,1.687-2.218,3.279-3.371,4.822l-0.584,0.782c-0.97,1.306-0.912,2.347,0.194,3.479l0.854,0.875
			c1.569,1.609,3.14,3.218,4.741,4.797c1.146,1.134,2.236,1.232,3.498,0.322c0.22-0.158,0.443-0.31,0.668-0.462
			c0.501-0.342,0.975-0.662,1.369-1.032c3.752-3.539,7.281-3.869,10.781-1.155c0.15,0.115,0.397,0.211,0.612,0.233
			c3.92,0.435,4.777,3.213,5.12,6.149c0.391,3.35,0.628,5.127,1.376,5.793c0.757,0.674,2.562,0.688,5.839,0.714L263.638,66.235z
			 M261.778,50.955c-8.299,0-16.016-3.149-21.75-8.866c-5.734-5.719-8.893-13.415-8.889-21.67
			c0.006-16.686,13.426-30.271,29.916-30.283h0.024c8.491,0,16.337,3.181,22.093,8.958c5.698,5.718,8.819,13.462,8.79,21.804
			C291.903,37.461,278.362,50.944,261.778,50.955z M261.08-8.865l-0.022,1C245.67-7.854,233.146,4.834,233.14,20.418
			c-0.002,7.721,2.946,14.912,8.303,20.253s12.572,8.283,20.316,8.283c15.243-0.009,28.149-12.861,28.204-28.063
			c0.028-7.809-2.887-15.048-8.206-20.387c-5.378-5.397-12.721-8.369-20.676-8.369L261.08-8.865L261.08-8.865z"/>
		<path fill="#FFFFFF" d="M268.187,43.1c-1.418,0-2.554-0.807-3.473-2.465c-0.587-1.06-1.672-1.691-2.902-1.691
			s-2.367,0.621-3.041,1.662c-0.946,1.459-2.652,2.33-4.565,2.33c-1.796,0-3.435-0.806-4.386-2.153
			c-0.494-0.703-0.59-1.806-0.287-3.277c0.313-1.519,0.087-2.843-0.639-3.733c-0.814-0.998-2.209-1.318-3.826-0.877
			c-0.559,0.153-1.057,0.229-1.521,0.229c-2.27,0-3.059-1.75-3.693-3.156c-0.1-0.221-0.201-0.447-0.311-0.672
			c-1.52-3.129,0.21-4.625,1.887-5.58c1.053-0.6,1.682-1.621,1.727-2.801c0.047-1.254-0.57-2.436-1.649-3.161
			c-1.086-0.729-2.87-2.153-2.612-3.494c0.314-1.648,1.129-3.444,2.424-5.338c0.426-0.621,1.211-0.621,1.469-0.621
			c0.686,0,1.57,0.187,2.218,0.323c0.343,0.072,0.63,0.104,0.912,0.104c1.146,0,2.201-0.501,2.896-1.375
			c0.683-0.86,0.916-1.949,0.655-3.066c-0.331-1.42,0.067-2.975,1.091-4.266c1.348-1.697,3.49-2.518,5.353-2.018
			c1.082,0.29,1.812,1.369,2.399,2.236l0.088,0.131c0.769,1.129,1.903,1.777,3.113,1.777c1.221,0,2.36-0.655,3.125-1.797
			c0.504-0.755,1.813-2.51,3.045-2.51l0.31,0.035c1.565,0.352,2.991,1.117,4.37,1.857c0.289,0.155,0.576,0.309,0.863,0.459
			c0.642,0.333,0.711,1.063,0.752,1.498c0.006,0.077,0.012,0.15,0.022,0.207l0.04,0.196l-0.034,0.215
			c-0.022,0.117-0.037,0.229-0.05,0.333c-0.039,0.305-0.083,0.65-0.27,0.994c-1.103,2.033-0.047,3.039,1.912,4.643l0.301,0.246
			c0.035,0.024,0.224,0.095,0.613,0.095c0.413,0,0.914-0.079,1.34-0.21c0.668-0.205,1.254-0.305,1.795-0.305
			c2.567,0,3.395,2.318,3.666,3.08l0.179,0.488c0.661,1.786,1.483,4.008-1.636,5.758c-1.27,0.712-1.996,1.813-1.994,3.021
			c0.002,1.272,0.791,2.439,2.162,3.204c3.123,1.738,2.172,4.094,1.479,5.813c-0.611,1.519-1.41,3.499-3.766,3.499
			c-0.44,0-0.908-0.068-1.43-0.211c-1.701-0.463-3.229-0.102-4.016,0.941c-0.627,0.83-0.766,2.017-0.389,3.341
			c0.986,3.465-1.269,4.489-2.914,5.239l-0.459,0.211C269.647,42.901,268.882,43.1,268.187,43.1z M261.812,36.944
			c1.967,0,3.707,1.018,4.651,2.721c0.701,1.266,1.265,1.436,1.724,1.436c0.396,0,0.883-0.138,1.489-0.423l0.481-0.222
			c1.699-0.773,2.334-1.063,1.818-2.873c-0.553-1.941-0.299-3.75,0.715-5.092c1.287-1.705,3.625-2.352,6.138-1.667
			c0.343,0.093,0.647,0.141,0.905,0.141c0.865,0,1.211-0.517,1.879-2.175c0.793-1.965,0.947-2.547-0.566-3.391
			c-1.994-1.109-3.186-2.959-3.188-4.947c-0.004-1.925,1.123-3.707,3.015-4.768c1.628-0.914,1.386-1.568,0.737-3.319l-0.187-0.511
			c-0.575-1.617-1.222-1.752-1.782-1.752c-0.332,0-0.738,0.072-1.205,0.217c-0.615,0.189-1.317,0.298-1.929,0.298
			c-0.81,0-1.444-0.188-1.888-0.552l-0.293-0.241c-1.73-1.417-4.35-3.558-2.405-7.143c0.011-0.032,0.03-0.185,0.044-0.296
			c0.012-0.09,0.024-0.184,0.039-0.279c-0.009-0.072-0.018-0.15-0.025-0.229c-0.002-0.027-0.004-0.056-0.006-0.083
			c-0.188-0.1-0.375-0.2-0.563-0.301c-1.26-0.677-2.454-1.317-3.692-1.628c-0.286,0.182-0.894,0.801-1.425,1.594
			c-1.143,1.707-2.886,2.686-4.787,2.686c-1.883,0-3.621-0.967-4.768-2.653l-0.09-0.134c-0.313-0.465-0.898-1.329-1.26-1.426
			c-1.092-0.293-2.418,0.26-3.268,1.33c-0.643,0.81-0.9,1.746-0.709,2.568c0.396,1.698,0.018,3.435-1.039,4.764
			c-1.332,1.676-3.546,2.457-5.727,1.997c-0.582-0.123-1.371-0.29-1.85-0.293c-1.006,1.519-1.65,2.933-1.917,4.208
			c0.153,0.287,0.802,0.955,1.738,1.585c1.657,1.114,2.604,2.944,2.532,4.896c-0.07,1.888-1.067,3.516-2.736,4.465
			c-1.566,0.893-1.787,1.502-1.076,2.969c0.118,0.242,0.227,0.484,0.335,0.723c0.661,1.467,0.972,1.979,1.87,1.979
			c0.281,0,0.615-0.054,0.993-0.156c2.379-0.653,4.594-0.065,5.905,1.543c1.111,1.365,1.483,3.283,1.047,5.4
			c-0.232,1.123-0.104,1.623-0.035,1.722c0.574,0.817,1.604,1.307,2.749,1.307c1.213-0.002,2.319-0.545,2.886-1.42
			C258.135,37.905,259.899,36.944,261.812,36.944z"/>
		<path fill="#FFFFFF" d="M261.918,29.008c-4.894,0-8.875-3.981-8.875-8.875s3.981-8.875,8.875-8.875s8.875,3.981,8.875,8.875
			S266.812,29.008,261.918,29.008z M261.918,13.258c-3.791,0-6.875,3.084-6.875,6.875s3.084,6.875,6.875,6.875
			s6.875-3.084,6.875-6.875S265.709,13.258,261.918,13.258z"/>
	</g>
	<path fill="#FFFFFF" d="M278.19,80.87h-32.504c-0.552,0-1-0.447-1-1s0.448-1,1-1h32.504c0.552,0,1,0.447,1,1
		S278.743,80.87,278.19,80.87z"/>
</g>
<circle fill="none" stroke="#FFFFFF" stroke-width="3" stroke-linecap="round" stroke-linejoin="round" stroke-miterlimit="10" cx="58.374" cy="40.145" r="18.858"/>
<path fill="none" stroke="#FFFFFF" stroke-width="3" stroke-linecap="round" stroke-linejoin="round" stroke-miterlimit="10" d="
	M17.187,111.38c0-22.746,18.44-41.188,41.188-41.188c22.746,0,41.187,18.441,41.187,41.188"/>
</svg>
