<?xml version="1.0" encoding="utf-8"?>
<!-- Generator: Adobe Illustrator 16.0.0, SVG Export Plug-In . SVG Version: 6.00 Build 0)  -->
<!DOCTYPE svg PUBLIC "-//W3C//DTD SVG 1.1//EN" "http://www.w3.org/Graphics/SVG/1.1/DTD/svg11.dtd">
<svg version="1.1" id="Capa_1" xmlns="http://www.w3.org/2000/svg" xmlns:xlink="http://www.w3.org/1999/xlink" x="0px" y="0px"
	 width="149.561px" height="127px" viewBox="0 0 149.561 127" enable-background="new 0 0 149.561 127" xml:space="preserve">
<g>
	<path fill-rule="evenodd" clip-rule="evenodd" fill="#FFFFFF" d="M47.432,35.973c15.354,0.459,29.529,9.392,39.371,25.376
		c1.008,1.637,0.848,4.999-0.175,6.731c-16.452,27.871-51.584,33.34-75.899,11.973c-1.118-0.982-2.449-1.987-3-3.273
		c-0.487-1.137-0.496-3.512,0.125-3.865c1.13-0.645,3.201-0.736,4.306-0.086c1.959,1.154,3.416,3.127,5.211,4.6
		c19.533,16.033,49.587,10.96,62.629-10.705c0.724-1.201,0.368-3.822-0.497-5.094C62.458,36.542,27.818,35.649,9.392,59.734
		c-1.414,1.848-2.42,4.071-4.062,5.659c-1.071,1.035-2.948,1.235-4.464,1.811c-0.264-1.632-1.307-3.737-0.653-4.808
		c2.325-3.81,4.96-7.51,7.961-10.812C17.229,41.621,30.295,36.029,47.432,35.973z"/>
	<path fill-rule="evenodd" clip-rule="evenodd" fill="#FFFFFF" d="M43.917,80.542c-8.388,0.063-15.957-7.351-16.092-15.762
		c-0.138-8.574,7.544-16.301,16.125-16.219c8.418,0.081,15.861,7.594,15.855,16.001C59.799,72.952,52.315,80.479,43.917,80.542z
		 M53.548,64.677c0.082-4.784-4.644-9.695-9.485-9.859c-4.787-0.162-9.731,4.472-9.982,9.354c-0.252,4.928,4.731,10.11,9.728,10.114
		C48.601,74.29,53.466,69.49,53.548,64.677z"/>
</g>
<path fill="#FFFFFF" d="M133.72,114.992H37.333c-1.104,0-2-0.896-2-2V92.505c0-1.104,0.896-2,2-2s2,0.896,2,2v18.487h92.388V17.183
	H39.333v24.095c0,1.104-0.896,2-2,2s-2-0.896-2-2V15.183c0-1.104,0.896-2,2-2h96.388c1.104,0,2,0.896,2,2v97.809
	C135.72,114.096,134.825,114.992,133.72,114.992z"/>
<path fill="#FFFFFF" d="M115.407,31.062H59.451c-1.104,0-2-0.896-2-2s0.896-2,2-2h55.956c1.104,0,2,0.896,2,2
	S116.511,31.062,115.407,31.062z"/>
<path fill="#FFFFFF" d="M115.407,42.296H80.16c-1.104,0-2-0.896-2-2s0.896-2,2-2h35.247c1.104,0,2,0.896,2,2
	S116.511,42.296,115.407,42.296z"/>
<path fill="#FFFFFF" d="M115.407,92.553H80.16c-1.104,0-2-0.896-2-2s0.896-2,2-2h35.247c1.104,0,2,0.896,2,2
	S116.511,92.553,115.407,92.553z"/>
<path fill="#FFFFFF" d="M115.407,79.989H92.813c-1.104,0-2-0.896-2-2s0.896-2,2-2h22.594c1.104,0,2,0.896,2,2
	S116.511,79.989,115.407,79.989z"/>
<path fill="#FFFFFF" d="M115.407,67.424H97.784c-1.104,0-2-0.896-2-2s0.896-2,2-2h17.623c1.104,0,2,0.896,2,2
	S116.511,67.424,115.407,67.424z"/>
<path fill="#FFFFFF" d="M115.407,54.192H92.813c-1.104,0-2-0.896-2-2s0.896-2,2-2h22.594c1.104,0,2,0.896,2,2
	S116.511,54.192,115.407,54.192z"/>
<path fill="#FFFFFF" d="M115.407,103.096H59.451c-1.104,0-2-0.896-2-2s0.896-2,2-2h55.956c1.104,0,2,0.896,2,2
	S116.511,103.096,115.407,103.096z"/>
</svg>
